<svg width="33" height="34" viewBox="0 0 33 34" fill="none" xmlns="http://www.w3.org/2000/svg">
<path d="M18.5904 8.45484C18.5908 8.76833 18.6608 9.07752 18.7949 9.35849C18.9291 9.63946 19.1237 9.88467 19.3639 10.0752C19.6041 10.2657 19.8833 10.3963 20.1799 10.4571C20.4766 10.5178 20.7828 10.507 21.0748 10.4254C21.3667 10.3439 21.6367 10.1938 21.8638 9.98674C22.0909 9.77972 22.269 9.52132 22.3843 9.23153C22.4997 8.94174 22.5492 8.62832 22.529 8.31553C22.5088 8.00273 22.4195 7.69894 22.2679 7.42765L23.585 6.06228H32.7961V12.154H26.5432C26.4202 11.6744 26.1332 11.2576 25.7356 10.9814C25.338 10.7051 24.8571 10.5882 24.3825 10.6525C23.9079 10.7168 23.4721 10.9578 23.1563 11.3307C22.8405 11.7036 22.6664 12.1829 22.6664 12.6791C22.6664 13.1753 22.8405 13.6546 23.1563 14.0275C23.4721 14.4004 23.9079 14.6415 24.3825 14.7057C24.8571 14.77 25.338 14.6531 25.7356 14.3769C26.1332 14.1006 26.4202 13.6838 26.5432 13.2043H32.7941V34H27.9454V24.2197C27.9454 24.0804 27.8922 23.9467 27.7974 23.8479L26.3406 22.3418C26.5164 22.031 26.6088 21.677 26.6081 21.3167C26.6077 20.8672 26.4643 20.4304 26.2 20.074C25.9358 19.7177 25.5655 19.4616 25.1466 19.3457C24.7277 19.2298 24.2836 19.2604 23.8832 19.4328C23.4828 19.6052 23.1484 19.9098 22.932 20.2993C22.7156 20.6888 22.6292 21.1414 22.6863 21.587C22.7433 22.0326 22.9406 22.4462 23.2475 22.7637C23.5544 23.0812 23.9538 23.2848 24.3838 23.343C24.8137 23.4011 25.2501 23.3106 25.6254 23.0854L26.9282 24.4361V34H21.0725V27.5176C21.535 27.3901 21.9371 27.0925 22.2036 26.6804C22.4701 26.2682 22.5828 25.7696 22.5208 25.2776C22.4588 24.7855 22.2263 24.3337 21.8666 24.0064C21.5069 23.679 21.0446 23.4985 20.5659 23.4985C20.0873 23.4985 19.625 23.679 19.2653 24.0064C18.9056 24.3337 18.6731 24.7855 18.6111 25.2776C18.549 25.7696 18.6618 26.2682 18.9283 26.6804C19.1948 27.0925 19.5968 27.3901 20.0594 27.5176V33.9979H0V28.988H9.42588C9.56028 28.988 9.68922 28.9329 9.78452 28.8347L11.2434 27.3223C11.6531 27.5746 12.1373 27.6639 12.6058 27.5735C13.0743 27.4831 13.4951 27.2191 13.7897 26.8308C14.0843 26.4424 14.2326 25.9563 14.2069 25.463C14.1813 24.9696 13.9835 24.5028 13.6504 24.1495C13.3172 23.7963 12.8715 23.5807 12.3964 23.5429C11.9212 23.5052 11.4491 23.6479 11.0679 23.9444C10.6868 24.241 10.4226 24.6711 10.3248 25.1546C10.227 25.6381 10.3021 26.142 10.5362 26.5723L9.21719 27.9377H0V21.846H6.25083C6.37381 22.3256 6.66086 22.7424 7.05844 23.0186C7.45602 23.2949 7.93697 23.4118 8.41156 23.3475C8.88616 23.2832 9.32199 23.0422 9.63775 22.6693C9.95351 22.2964 10.1276 21.8171 10.1276 21.3209C10.1276 20.8247 9.95351 20.3454 9.63775 19.9725C9.32199 19.5996 8.88616 19.3585 8.41156 19.2943C7.93697 19.23 7.45602 19.3469 7.05844 19.6231C6.66086 19.8994 6.37381 20.3162 6.25083 20.7957H0V0H4.84059V9.7719C4.84074 9.84106 4.85406 9.9095 4.87979 9.97331C4.90552 10.0371 4.94316 10.095 4.99053 10.1437L6.4494 11.6582C6.20673 12.0855 6.12234 12.5897 6.21199 13.0768C6.30163 13.5639 6.55918 14.0005 6.93655 14.3051C7.31393 14.6097 7.78534 14.7616 8.2628 14.7323C8.74025 14.7031 9.19112 14.4947 9.53124 14.1461C9.87136 13.7974 10.0775 13.3324 10.1111 12.8378C10.1448 12.3432 10.0037 11.8528 9.71413 11.4581C9.42459 11.0634 9.0064 10.7915 8.53764 10.693C8.06887 10.5946 7.58156 10.6763 7.16667 10.923L5.85369 9.56394V0H11.7297V6.48029C11.2666 6.6078 10.864 6.90562 10.5971 7.3182C10.3303 7.73078 10.2173 8.22993 10.2793 8.72251C10.3413 9.21509 10.5741 9.66746 10.9342 9.9952C11.2943 10.3229 11.7571 10.5037 12.2362 10.5037C12.7154 10.5037 13.1782 10.3229 13.5383 9.9952C13.8984 9.66746 14.1311 9.21509 14.1931 8.72251C14.2552 8.22993 14.1422 7.73078 13.8753 7.3182C13.6084 6.90562 13.2059 6.6078 12.7428 6.48029V0H32.8022V5.01199H23.3763C23.242 5.01242 23.1132 5.06748 23.0176 5.16533L21.5507 6.68615C21.251 6.50603 20.9108 6.41096 20.5644 6.4105C20.218 6.41004 19.8776 6.50421 19.5775 6.68353C19.2773 6.86285 19.0281 7.12099 18.8548 7.43195C18.6815 7.74291 18.5903 8.09572 18.5904 8.45484Z" fill="url(#paint0_linear)"/>
<defs>
<linearGradient id="paint0_linear" x1="0" y1="0" x2="33.9779" y2="32.7748" gradientUnits="userSpaceOnUse">
<stop stop-color="#0034FC"/>
<stop offset="0.25" stop-color="#2226FD"/>
<stop offset="0.76" stop-color="#630BFE"/>
<stop offset="1" stop-color="#7C00FF"/>
</linearGradient>
</defs>
</svg>
